<svg width="88" height="88" viewBox="0 0 88 88" fill="none" xmlns="http://www.w3.org/2000/svg">
<path d="M44 7.33333C39.1849 7.33333 34.4169 8.28175 29.9683 10.1244C25.5197 11.9671 21.4776 14.6679 18.0728 18.0728C11.1965 24.9491 7.33337 34.2754 7.33337 44C7.33337 60.2067 17.8567 73.9567 32.4134 78.8333C34.2467 79.1267 34.8334 77.99 34.8334 77V70.8033C24.6767 73.0033 22.5134 65.89 22.5134 65.89C20.8267 61.6367 18.4434 60.5 18.4434 60.5C15.1067 58.2267 18.7 58.3 18.7 58.3C22.3667 58.5567 24.31 62.0767 24.31 62.0767C27.5 67.65 32.89 66 34.98 65.12C35.31 62.7367 36.2634 61.1233 37.29 60.2067C29.15 59.29 20.6067 56.1367 20.6067 42.1667C20.6067 38.0967 22 34.8333 24.3834 32.23C24.0167 31.3133 22.7334 27.5 24.75 22.55C24.75 22.55 27.83 21.56 34.8334 26.29C37.73 25.4833 40.8834 25.08 44 25.08C47.1167 25.08 50.27 25.4833 53.1667 26.29C60.17 21.56 63.25 22.55 63.25 22.55C65.2667 27.5 63.9834 31.3133 63.6167 32.23C66 34.8333 67.3934 38.0967 67.3934 42.1667C67.3934 56.1733 58.8134 59.2533 50.6367 60.17C51.9567 61.3067 53.1667 63.5433 53.1667 66.9533V77C53.1667 77.99 53.7534 79.1633 55.6234 78.8333C70.18 73.92 80.6667 60.2067 80.6667 44C80.6667 39.1849 79.7183 34.4169 77.8756 29.9683C76.033 25.5197 73.3321 21.4776 69.9273 18.0728C66.5225 14.6679 62.4804 11.9671 58.0318 10.1244C53.5832 8.28175 48.8152 7.33333 44 7.33333Z" fill="#104D44"/>
</svg>
